<svg width="414" height="736" viewBox="0 0 414 736" fill="none" xmlns="http://www.w3.org/2000/svg">
<rect width="414" height="736" fill="white"/>
<rect x="58" y="46" width="34" height="34" fill="#95CDB8"/>
<rect x="124" y="46" width="34" height="34" fill="#C5C5C5"/>
<rect x="190" y="46" width="34" height="34" fill="#C5C5C5"/>
<rect x="256" y="46" width="340" height="34" fill="#C5C5C5"/>
<rect x="322" y="46" width="34" height="34" fill="#C5C5C5"/>
<path d="M145.748 329.433L81.9152 136H332.085L207 515.045L145.748 329.433Z" stroke="#95CDB8" stroke-width="10"/>
<path d="M168 399.5H207H245.5L207 531L168 399.5Z" fill="#95CDB8"/>
<rect x="39" y="576" width="336" height="133" fill="#C5C5C5"/>
<path d="M125.483 590.55C125.049 590.55 124.683 590.7 124.383 591C124.083 591.3 123.933 591.667 123.933 592.1V628.5C123.933 628.9 124.083 629.25 124.383 629.55C124.683 629.85 125.049 630 125.483 630H129.783C130.216 630 130.583 629.85 130.883 629.55C131.183 629.25 131.333 628.9 131.333 628.5V611.8H133.183V614.65C133.183 615.05 133.333 615.4 133.633 615.7C133.933 616 134.283 616.15 134.683 616.15H137.783V619.25C137.783 619.683 137.933 620.05 138.233 620.35C138.533 620.617 138.883 620.75 139.283 620.75H142.483V623.9C142.483 624.3 142.616 624.65 142.883 624.95C143.183 625.25 143.549 625.4 143.983 625.4H147.083V628.5C147.083 628.9 147.233 629.25 147.533 629.55C147.833 629.85 148.183 630 148.583 630H152.583C153.016 630 153.383 629.85 153.683 629.55C153.983 629.25 154.133 628.9 154.133 628.5V624.45C154.133 624.017 153.983 623.65 153.683 623.35C153.383 623.05 153.016 622.9 152.583 622.9H149.483V619.8C149.483 619.4 149.333 619.05 149.033 618.75C148.766 618.45 148.416 618.3 147.983 618.3H144.883V615.2C144.883 614.767 144.733 614.417 144.433 614.15C144.133 613.85 143.783 613.7 143.383 613.7H140.283V610.6C140.283 610.167 140.133 609.8 139.833 609.5C139.533 609.2 139.183 609.05 138.783 609.05H135.933V607.15H139.033C139.433 607.15 139.783 607 140.083 606.7C140.383 606.4 140.533 606.05 140.533 605.65V602.55H143.633C144.066 602.55 144.416 602.4 144.683 602.1C144.983 601.8 145.133 601.45 145.133 601.05V597.9H147.983C148.416 597.9 148.766 597.767 149.033 597.5C149.333 597.2 149.483 596.833 149.483 596.4V592.1C149.483 591.667 149.333 591.3 149.033 591C148.766 590.7 148.416 590.55 147.983 590.55H143.633C143.233 590.55 142.883 590.7 142.583 591C142.283 591.3 142.133 591.667 142.133 592.1V594.9H139.033C138.633 594.9 138.283 595.05 137.983 595.35C137.683 595.65 137.533 596 137.533 596.4V599.5H134.433C133.999 599.5 133.633 599.65 133.333 599.95C133.066 600.25 132.933 600.617 132.933 601.05V603.85H131.333V592.1C131.333 591.667 131.183 591.3 130.883 591C130.583 590.7 130.216 590.55 129.783 590.55H125.483ZM159.608 590.55C159.208 590.55 158.858 590.7 158.558 591C158.258 591.3 158.108 591.667 158.108 592.1V628.5C158.108 628.9 158.258 629.25 158.558 629.55C158.858 629.85 159.208 630 159.608 630H182.158C182.558 630 182.908 629.85 183.208 629.55C183.508 629.25 183.658 628.9 183.658 628.5V624.15C183.658 623.75 183.508 623.4 183.208 623.1C182.908 622.8 182.558 622.65 182.158 622.65H165.458V592.1C165.458 591.667 165.308 591.3 165.008 591C164.708 590.7 164.358 590.55 163.958 590.55H159.608ZM186.707 622.65C186.307 622.65 185.957 622.8 185.657 623.1C185.357 623.4 185.207 623.75 185.207 624.15V628.5C185.207 628.9 185.357 629.25 185.657 629.55C185.957 629.85 186.307 630 186.707 630H209.257C209.657 630 210.007 629.85 210.307 629.55C210.607 629.25 210.757 628.9 210.757 628.5V624.15C210.757 623.75 210.607 623.4 210.307 623.1C210.007 622.8 209.657 622.65 209.257 622.65H202.107V597.9H209.257C209.657 597.9 210.007 597.767 210.307 597.5C210.607 597.2 210.757 596.833 210.757 596.4V592.1C210.757 591.667 210.607 591.3 210.307 591C210.007 590.7 209.657 590.55 209.257 590.55H186.707C186.307 590.55 185.957 590.7 185.657 591C185.357 591.3 185.207 591.667 185.207 592.1V596.4C185.207 596.833 185.357 597.2 185.657 597.5C185.957 597.767 186.307 597.9 186.707 597.9H193.907V622.65H186.707ZM216.596 594.9C216.163 594.9 215.796 595.05 215.496 595.35C215.196 595.65 215.046 596 215.046 596.4V623.9C215.046 624.3 215.196 624.65 215.496 624.95C215.796 625.25 216.163 625.4 216.596 625.4H219.696V628.5C219.696 628.9 219.829 629.25 220.096 629.55C220.396 629.85 220.763 630 221.196 630H239.446C239.846 630 240.196 629.85 240.496 629.55C240.796 629.25 240.946 628.9 240.946 628.5V625.65H243.696C244.129 625.65 244.496 625.5 244.796 625.2C245.096 624.9 245.246 624.55 245.246 624.15V619.8C245.246 619.4 245.096 619.05 244.796 618.75C244.496 618.45 244.129 618.3 243.696 618.3H239.446C239.013 618.3 238.646 618.45 238.346 618.75C238.046 619.05 237.896 619.4 237.896 619.8V622.65H222.446V597.9H238.196V600.75C238.196 601.183 238.346 601.55 238.646 601.85C238.946 602.117 239.296 602.25 239.696 602.25H243.696C244.129 602.25 244.496 602.117 244.796 601.85C245.096 601.55 245.246 601.183 245.246 600.75V596.7C245.246 596.267 245.096 595.917 244.796 595.65C244.496 595.35 244.129 595.2 243.696 595.2H240.596V592.1C240.596 591.667 240.446 591.3 240.146 591C239.879 590.7 239.529 590.55 239.096 590.55H220.896C220.496 590.55 220.146 590.7 219.846 591C219.546 591.3 219.396 591.667 219.396 592.1V594.9H216.596ZM250.336 590.55C249.903 590.55 249.536 590.7 249.236 591C248.936 591.3 248.786 591.667 248.786 592.1V628.5C248.786 628.9 248.936 629.25 249.236 629.55C249.536 629.85 249.903 630 250.336 630H254.636C255.069 630 255.436 629.85 255.736 629.55C256.036 629.25 256.186 628.9 256.186 628.5V611.8H258.036V614.65C258.036 615.05 258.186 615.4 258.486 615.7C258.786 616 259.136 616.15 259.536 616.15H262.636V619.25C262.636 619.683 262.786 620.05 263.086 620.35C263.386 620.617 263.736 620.75 264.136 620.75H267.336V623.9C267.336 624.3 267.469 624.65 267.736 624.95C268.036 625.25 268.403 625.4 268.836 625.4H271.936V628.5C271.936 628.9 272.086 629.25 272.386 629.55C272.686 629.85 273.036 630 273.436 630H277.436C277.869 630 278.236 629.85 278.536 629.55C278.836 629.25 278.986 628.9 278.986 628.5V624.45C278.986 624.017 278.836 623.65 278.536 623.35C278.236 623.05 277.869 622.9 277.436 622.9H274.336V619.8C274.336 619.4 274.186 619.05 273.886 618.75C273.619 618.45 273.269 618.3 272.836 618.3H269.736V615.2C269.736 614.767 269.586 614.417 269.286 614.15C268.986 613.85 268.636 613.7 268.236 613.7H265.136V610.6C265.136 610.167 264.986 609.8 264.686 609.5C264.386 609.2 264.036 609.05 263.636 609.05H260.786V607.15H263.886C264.286 607.15 264.636 607 264.936 606.7C265.236 606.4 265.386 606.05 265.386 605.65V602.55H268.486C268.919 602.55 269.269 602.4 269.536 602.1C269.836 601.8 269.986 601.45 269.986 601.05V597.9H272.836C273.269 597.9 273.619 597.767 273.886 597.5C274.186 597.2 274.336 596.833 274.336 596.4V592.1C274.336 591.667 274.186 591.3 273.886 591C273.619 590.7 273.269 590.55 272.836 590.55H268.486C268.086 590.55 267.736 590.7 267.436 591C267.136 591.3 266.986 591.667 266.986 592.1V594.9H263.886C263.486 594.9 263.136 595.05 262.836 595.35C262.536 595.65 262.386 596 262.386 596.4V599.5H259.286C258.853 599.5 258.486 599.65 258.186 599.95C257.919 600.25 257.786 600.617 257.786 601.05V603.85H256.186V592.1C256.186 591.667 256.036 591.3 255.736 591C255.436 590.7 255.069 590.55 254.636 590.55H250.336ZM144.33 653.55C143.897 653.55 143.53 653.7 143.23 654C142.93 654.3 142.78 654.667 142.78 655.1V691.5C142.78 691.9 142.93 692.25 143.23 692.55C143.53 692.85 143.897 693 144.33 693H148.63C149.064 693 149.43 692.85 149.73 692.55C150.03 692.25 150.18 691.9 150.18 691.5V675.1H165.63V691.5C165.63 691.9 165.78 692.25 166.08 692.55C166.38 692.85 166.747 693 167.18 693H171.43C171.864 693 172.23 692.85 172.53 692.55C172.83 692.25 172.98 691.9 172.98 691.5V655.1C172.98 654.667 172.83 654.3 172.53 654C172.23 653.7 171.864 653.55 171.43 653.55H167.18C166.747 653.55 166.38 653.7 166.08 654C165.78 654.3 165.63 654.667 165.63 655.1V666.85H150.18V655.1C150.18 654.667 150.03 654.3 149.73 654C149.43 653.7 149.064 653.55 148.63 653.55H144.33ZM178.944 685.65C178.544 685.65 178.194 685.8 177.894 686.1C177.594 686.4 177.444 686.75 177.444 687.15V691.5C177.444 691.9 177.594 692.25 177.894 692.55C178.194 692.85 178.544 693 178.944 693H201.494C201.894 693 202.244 692.85 202.544 692.55C202.844 692.25 202.994 691.9 202.994 691.5V687.15C202.994 686.75 202.844 686.4 202.544 686.1C202.244 685.8 201.894 685.65 201.494 685.65H194.344V660.9H201.494C201.894 660.9 202.244 660.767 202.544 660.5C202.844 660.2 202.994 659.833 202.994 659.4V655.1C202.994 654.667 202.844 654.3 202.544 654C202.244 653.7 201.894 653.55 201.494 653.55H178.944C178.544 653.55 178.194 653.7 177.894 654C177.594 654.3 177.444 654.667 177.444 655.1V659.4C177.444 659.833 177.594 660.2 177.894 660.5C178.194 660.767 178.544 660.9 178.944 660.9H186.144V685.65H178.944ZM209.028 653.55C208.594 653.55 208.228 653.7 207.928 654C207.628 654.3 207.478 654.667 207.478 655.1V691.5C207.478 691.9 207.628 692.25 207.928 692.55C208.228 692.85 208.594 693 209.028 693H236.128C236.561 693 236.928 692.85 237.228 692.55C237.528 692.25 237.678 691.9 237.678 691.5V687.15C237.678 686.75 237.528 686.4 237.228 686.1C236.928 685.8 236.561 685.65 236.128 685.65H215.128V676.3H226.928C227.328 676.3 227.678 676.167 227.978 675.9C228.278 675.6 228.428 675.233 228.428 674.8V670.15C228.428 669.717 228.278 669.367 227.978 669.1C227.678 668.8 227.328 668.65 226.928 668.65H215.128V660.9H236.128C236.561 660.9 236.928 660.767 237.228 660.5C237.528 660.2 237.678 659.833 237.678 659.4V655.1C237.678 654.667 237.528 654.3 237.228 654C236.928 653.7 236.561 653.55 236.128 653.55H209.028ZM242.572 653.55C242.139 653.55 241.772 653.7 241.472 654C241.172 654.3 241.022 654.667 241.022 655.1V691.5C241.022 691.9 241.172 692.25 241.472 692.55C241.772 692.85 242.139 693 242.572 693H246.872C247.306 693 247.672 692.85 247.972 692.55C248.272 692.25 248.422 691.9 248.422 691.5V679.7H254.622V682.25C254.622 682.683 254.772 683.05 255.072 683.35C255.372 683.617 255.722 683.75 256.122 683.75H259.572V686.9C259.572 687.3 259.706 687.65 259.972 687.95C260.272 688.25 260.639 688.4 261.072 688.4H264.172V691.5C264.172 691.9 264.322 692.25 264.622 692.55C264.922 692.85 265.272 693 265.672 693H269.672C270.106 693 270.472 692.85 270.772 692.55C271.072 692.25 271.222 691.9 271.222 691.5V687.45C271.222 687.017 271.072 686.65 270.772 686.35C270.472 686.05 270.106 685.9 269.672 685.9H266.572V682.8C266.572 682.4 266.422 682.05 266.122 681.75C265.856 681.45 265.506 681.3 265.072 681.3H262.222V679.45H265.422C265.822 679.45 266.172 679.3 266.472 679C266.772 678.7 266.922 678.333 266.922 677.9V674.8H269.672C270.106 674.8 270.472 674.667 270.772 674.4C271.072 674.1 271.222 673.733 271.222 673.3V659.7C271.222 659.267 271.072 658.917 270.772 658.65C270.472 658.35 270.106 658.2 269.672 658.2H266.572V655.1C266.572 654.667 266.422 654.3 266.122 654C265.856 653.7 265.506 653.55 265.072 653.55H242.572ZM248.672 671.5V660.9H263.872V671.5H248.672Z" fill="black"/>
</svg>
